<svg width="612" height="1106" viewBox="0 0 612 1106" fill="none" xmlns="http://www.w3.org/2000/svg">
<path d="M474.275 419.711L437.071 385L279.816 553.699L317.02 588.411L474.275 419.711Z" fill="#49D3BA"/>
<path d="M304.994 601.421L267.791 566.71L128.918 715.689L166.121 750.4L304.994 601.421Z" fill="#49D3BA"/>
<path d="M156.236 633.957L105.937 641.708L122.211 747.864L172.51 740.114L156.236 633.957Z" fill="#49D3BA"/>
<path d="M134.075 481.126L83.7764 488.877L105.09 627.907L155.389 620.156L134.075 481.126Z" fill="#49D3BA"/>
<path d="M147.521 790.8L101.874 768.327L7.87256e-05 975.251L45.6466 997.724L147.521 790.8Z" fill="#49D3BA"/>
<path d="M187.688 709.212L142.042 686.739L108.453 754.964L154.099 777.437L187.688 709.212Z" fill="#49D3BA"/>
<path d="M77.0984 564.67C80.8823 565.632 91.2615 572.677 93.5501 576.705C87.8751 579.315 82.7169 585.199 77.6783 588.993C72.0718 593.215 63.8264 596.99 56.9371 597.997C42.7335 600.072 29.314 594.887 18.7775 583.65C16.2479 580.952 13.979 578.065 11.5032 575.324C10.6607 574.391 6.877 569.263 7.42535 567.577C8.20758 565.172 18.6669 565.964 20.292 566.293C32.4328 568.747 42.921 565.996 54.594 563.749C61.9006 562.342 69.6813 562.785 77.0984 564.67Z" fill="#49D3BA"/>
<path d="M281.504 484.935C284.186 488.62 288.255 502.685 287.307 508.009C280.265 506.122 271.245 507.561 263.891 507.212C255.708 506.824 245.488 504.068 238.551 499.836C224.247 491.11 216.061 476.449 214.975 458.501C214.715 454.192 214.829 449.908 214.65 445.6C214.589 444.134 215.013 436.708 216.763 435.603C219.259 434.026 228.061 442.535 229.276 444.042C238.35 455.298 249.821 460.645 261.979 467.33C269.59 471.514 276.248 477.713 281.504 484.935Z" fill="#49D3BA"/>
<path d="M445.574 503.67C441.791 504.632 431.411 511.677 429.123 515.705C434.798 518.315 439.956 524.199 444.995 527.993C450.601 532.215 458.846 535.99 465.736 536.997C479.939 539.072 493.359 533.887 503.895 522.65C506.425 519.952 508.694 517.065 511.17 514.324C512.012 513.391 515.796 508.263 515.248 506.577C514.465 504.172 504.006 504.964 502.381 505.293C490.24 507.747 479.752 504.996 468.079 502.749C460.772 501.342 452.992 501.785 445.574 503.67Z" fill="#49D3BA"/>
<g clip-path="url(#clip0_410_163)">
<path d="M151.723 164.191C207.78 197.931 278.575 122.506 278.575 122.506C278.575 122.506 177.299 103.954 151.723 164.191Z" fill="#49D3BA"/>
<path d="M344.816 206.389C369.715 266.93 471.505 248.611 471.505 248.611C471.505 248.611 401.27 173.303 344.816 206.412V206.389Z" fill="#49D3BA"/>
<path d="M303.591 206.459C335.917 211.39 354.322 163.046 354.322 163.046C354.322 163.046 303.964 173.724 303.591 206.459Z" fill="#49D3BA"/>
<path d="M258.325 245.433C266.219 277.187 317.909 275.552 317.909 275.552C317.909 275.552 288.666 233.166 258.325 245.433Z" fill="#49D3BA"/>
<path d="M105.662 195.337C124.418 132.647 33.8158 82.7612 33.8158 82.7612C33.8158 82.7612 40.9865 185.5 105.662 195.337Z" fill="#49D3BA"/>
<path d="M139.741 130.427C197.316 99.3743 168.516 0 168.516 0C168.516 0 100.968 77.7377 139.741 130.427Z" fill="#49D3BA"/>
<path d="M142 123C142 123 108.379 235.202 114.82 297" stroke="#49D3BA" stroke-width="9" stroke-miterlimit="10"/>
<path d="M354.346 208.305C354.346 208.305 84.4541 272.304 54.3 360.626" stroke="#49D3BA" stroke-width="9" stroke-miterlimit="10"/>
</g>
<path d="M382.499 901.314C367.281 964.981 460.556 1009.67 460.556 1009.67C460.556 1009.67 447.641 907.502 382.485 901.333L382.499 901.314Z" fill="#49D3BA"/>
<path d="M349.021 877.257C372.356 900.165 415.562 871.721 415.562 871.721C415.562 871.721 368.472 850.925 349.021 877.257Z" fill="#49D3BA"/>
<path d="M289.509 882.389C277.338 912.762 320.219 941.671 320.219 941.671C320.219 941.671 321.294 890.188 289.509 882.389Z" fill="#49D3BA"/>
<path d="M389.107 908.443C389.107 908.443 154.984 809.103 87 856" stroke="#49D3BA" stroke-width="9" stroke-miterlimit="10"/>
<defs>
<clipPath id="clip0_410_163">
<rect width="445" height="361" fill="white" transform="matrix(-1 0 0 1 478.816 0)"/>
</clipPath>
</defs>
</svg>
