<svg width="465" height="798" viewBox="0 0 465 798" fill="none" xmlns="http://www.w3.org/2000/svg">
<path fill-rule="evenodd" clip-rule="evenodd" d="M331.507 368.133C331.496 366.476 332.83 365.124 334.487 365.113L349.347 365.017C351.004 365.007 352.355 366.341 352.366 367.998L352.915 452.927L332.057 453.201L331.507 368.133ZM332.13 464.583L352.989 464.31L353.752 582.402L332.893 582.675L332.13 464.583ZM332.967 594.057L334.429 820.291C334.44 821.948 335.792 823.282 337.448 823.272L352.308 823.176C353.965 823.165 355.299 821.813 355.289 820.156L353.825 593.784L332.967 594.057Z" fill="#C2CED9" fill-opacity="0.3"/>
<path d="M369.63 366.832C368.333 368.035 365.729 373.088 365.692 375.187C368.516 374.996 371.844 376.219 374.672 376.637C377.818 377.102 381.918 376.817 384.878 375.724C390.98 373.471 395.196 368.499 396.953 361.743C397.375 360.121 397.652 358.48 398.043 356.853C398.176 356.299 398.57 353.438 397.986 352.886C397.154 352.098 393.163 354.681 392.588 355.164C388.289 358.772 383.518 359.951 378.386 361.587C375.173 362.611 372.173 364.474 369.63 366.832Z" fill="#C2CED9" fill-opacity="0.3"/>
<path d="M322.636 467.097C323.933 468.3 326.536 473.354 326.574 475.453C323.75 475.261 320.421 476.485 317.594 476.903C314.447 477.367 310.348 477.082 307.388 475.99C301.286 473.736 297.07 468.764 295.313 462.008C294.891 460.386 294.614 458.746 294.223 457.118C294.09 456.564 293.695 453.703 294.279 453.151C295.112 452.364 299.102 454.946 299.678 455.429C303.977 459.038 308.747 460.216 313.88 461.853C317.092 462.877 320.093 464.74 322.636 467.097Z" fill="#C2CED9" fill-opacity="0.3"/>
<path d="M318.855 483.242C320.184 483.058 324.4 483.957 325.65 484.943C324.181 486.508 323.301 489.049 322.188 490.909C320.95 492.979 318.814 495.249 316.752 496.461C312.499 498.96 307.556 499.047 302.747 496.834C301.592 496.303 300.496 495.678 299.353 495.125C298.964 494.937 297.096 493.795 297.052 493.187C296.99 492.32 300.422 491.218 300.982 491.113C305.164 490.322 308.147 488.088 311.572 485.862C313.716 484.468 316.25 483.602 318.855 483.242Z" fill="#C2CED9" fill-opacity="0.3"/>
<path d="M368.087 356.9C367.634 357.868 365.13 360.367 363.869 360.831C363.39 359.235 361.949 357.66 361.1 356.191C360.156 354.557 359.463 352.239 359.499 350.379C359.574 346.543 361.688 343.173 365.399 340.78C366.29 340.206 367.223 339.707 368.124 339.149C368.43 338.959 370.075 338.138 370.532 338.343C371.183 338.636 370.465 341.378 370.294 341.797C369.021 344.925 369.315 347.801 369.409 350.972C369.467 352.957 368.975 355.002 368.087 356.9Z" fill="#C2CED9" fill-opacity="0.3"/>
<path fill-rule="evenodd" clip-rule="evenodd" d="M401.737 488.516C401.726 486.859 403.06 485.507 404.717 485.496L417.27 485.415C418.927 485.404 420.279 486.739 420.289 488.396L420.776 563.601L402.224 563.845L401.737 488.516ZM402.289 573.968L420.841 573.725L421.52 678.759L402.968 679.002L402.289 573.968ZM403.033 689.126L404.332 890.01C404.342 891.667 405.694 893.001 407.351 892.99L419.904 892.909C421.561 892.899 422.895 891.547 422.884 889.89L421.585 688.883L403.033 689.126Z" fill="#C2CED9" fill-opacity="0.3"/>
<path d="M435.642 487.027C434.488 488.097 432.172 492.591 432.139 494.458C434.651 494.288 437.611 495.376 440.126 495.748C442.924 496.161 446.571 495.908 449.203 494.936C454.63 492.932 458.38 488.509 459.943 482.5C460.318 481.058 460.565 479.599 460.913 478.151C461.031 477.658 461.382 475.114 460.862 474.623C460.122 473.922 456.573 476.219 456.061 476.649C452.237 479.858 447.994 480.907 443.429 482.362C440.572 483.273 437.903 484.93 435.642 487.027Z" fill="#C2CED9" fill-opacity="0.3"/>
<path d="M393.844 576.204C394.998 577.274 397.313 581.769 397.347 583.636C394.835 583.466 391.875 584.554 389.36 584.925C386.562 585.339 382.915 585.085 380.283 584.113C374.855 582.109 371.105 577.687 369.543 571.678C369.167 570.236 368.921 568.776 368.573 567.329C368.455 566.836 368.104 564.292 368.623 563.801C369.364 563.1 372.913 565.397 373.425 565.827C377.249 569.036 381.492 570.084 386.057 571.54C388.914 572.451 391.582 574.107 393.844 576.204Z" fill="#C2CED9" fill-opacity="0.3"/>
<path d="M434.268 478.193C433.865 479.054 431.638 481.277 430.517 481.689C430.091 480.27 428.809 478.869 428.054 477.562C427.214 476.108 426.598 474.047 426.63 472.392C426.697 468.981 428.577 465.983 431.878 463.856C432.67 463.345 433.5 462.901 434.301 462.404C434.574 462.235 436.037 461.506 436.443 461.688C437.022 461.948 436.383 464.387 436.232 464.76C435.099 467.542 435.361 470.1 435.444 472.92C435.496 474.686 435.058 476.505 434.268 478.193Z" fill="#C2CED9" fill-opacity="0.3"/>
<path fill-rule="evenodd" clip-rule="evenodd" d="M199.381 2.99999C199.381 1.34313 200.724 0 202.381 0H235.695C237.352 0 238.695 1.34315 238.695 3V174.107H199.381V2.99999ZM199.381 196.572H238.695V429.651H199.381V196.572ZM199.381 452.117V901.233C199.381 902.89 200.724 904.233 202.381 904.233H235.695C237.352 904.233 238.695 902.89 238.695 901.233V452.117H199.381Z" fill="#49D3BA"/>
<path d="M296.488 140.889C293.435 142.543 285.871 150.973 284.659 155.019C289.985 156.119 295.473 160.222 300.474 162.503C306.038 165.043 313.774 166.626 319.841 166.052C332.351 164.867 342.853 157.434 349.78 145.266C351.443 142.345 352.848 139.312 354.457 136.364C355.005 135.36 357.291 130.026 356.512 128.652C355.401 126.693 346.616 129.616 345.29 130.252C335.376 135 325.914 134.798 315.533 135.293C309.036 135.603 302.474 137.647 296.488 140.889Z" fill="#49D3BA"/>
<path fill-rule="evenodd" clip-rule="evenodd" d="M89.835 227.654C89.835 225.997 91.1781 224.654 92.835 224.654H126.149C127.806 224.654 129.149 225.997 129.149 227.654V398.761H89.835V227.654ZM89.835 421.227H129.149V654.306H89.835V421.227ZM89.835 676.771V1125.89C89.835 1127.54 91.1781 1128.89 92.835 1128.89H126.149C127.806 1128.89 129.149 1127.54 129.149 1125.89V676.771H89.835Z" fill="#49D3BA"/>
<path d="M47.2738 595.118C49.6594 596.41 55.5686 602.996 56.5154 606.156C52.3546 607.016 48.0672 610.221 44.1604 612.004C39.8132 613.987 33.7702 615.224 29.0301 614.775C19.2575 613.85 11.0527 608.043 5.64176 598.538C4.34272 596.255 3.24473 593.886 1.98789 591.583C1.56014 590.799 -0.225707 586.631 0.382679 585.559C1.25054 584.028 8.11302 586.312 9.14967 586.808C16.8945 590.518 24.2863 590.359 32.3956 590.746C37.4716 590.988 42.5977 592.586 47.2738 595.118Z" fill="#49D3BA"/>
<path fill-rule="evenodd" clip-rule="evenodd" d="M272.222 643.947C272.211 642.29 273.545 640.939 275.202 640.928L281.309 640.888C282.965 640.878 284.317 642.212 284.328 643.869L284.638 691.9L272.532 692.059L272.222 643.947ZM272.575 698.665L284.681 698.506L285.124 767.046L273.018 767.205L272.575 698.665ZM273.061 773.811L273.901 903.853C273.912 905.509 275.264 906.844 276.921 906.833L283.027 906.794C284.684 906.783 286.018 905.431 286.008 903.774L285.167 773.652L273.061 773.811Z" fill="#C2CED9" fill-opacity="0.3"/>
<path d="M294.339 641.931C293.586 642.629 292.075 645.562 292.053 646.78C293.692 646.669 295.624 647.379 297.265 647.622C299.091 647.891 301.47 647.726 303.188 647.092C306.73 645.784 309.177 642.898 310.196 638.977C310.441 638.036 310.602 637.084 310.829 636.139C310.906 635.818 311.135 634.157 310.796 633.837C310.313 633.38 307.997 634.879 307.663 635.159C305.168 637.253 302.399 637.937 299.42 638.887C297.556 639.481 295.815 640.562 294.339 641.931Z" fill="#C2CED9" fill-opacity="0.3"/>
<path d="M267.064 700.124C267.817 700.822 269.328 703.755 269.35 704.974C267.711 704.862 265.779 705.573 264.138 705.815C262.312 706.085 259.933 705.919 258.215 705.285C254.673 703.977 252.226 701.092 251.206 697.171C250.962 696.229 250.801 695.277 250.574 694.332C250.497 694.011 250.268 692.351 250.607 692.03C251.09 691.573 253.406 693.072 253.74 693.352C256.235 695.447 259.004 696.131 261.982 697.08C263.847 697.675 265.588 698.756 267.064 700.124Z" fill="#C2CED9" fill-opacity="0.3"/>
<path d="M264.871 709.494C265.642 709.387 268.089 709.909 268.815 710.481C267.962 711.39 267.452 712.865 266.806 713.944C266.087 715.145 264.848 716.463 263.65 717.166C261.182 718.617 258.313 718.667 255.522 717.383C254.852 717.074 254.216 716.711 253.553 716.391C253.327 716.282 252.243 715.619 252.217 715.266C252.181 714.763 254.173 714.124 254.498 714.062C256.925 713.603 258.656 712.307 260.644 711.015C261.888 710.206 263.359 709.703 264.871 709.494Z" fill="#C2CED9" fill-opacity="0.3"/>
<path d="M293.443 636.169C293.18 636.731 291.727 638.182 290.996 638.45C290.717 637.524 289.881 636.61 289.388 635.758C288.84 634.809 288.439 633.464 288.459 632.384C288.503 630.158 289.73 628.202 291.884 626.814C292.401 626.48 292.942 626.191 293.465 625.867C293.643 625.756 294.598 625.28 294.863 625.399C295.241 625.569 294.823 627.16 294.725 627.404C293.986 629.219 294.156 630.888 294.211 632.729C294.245 633.881 293.959 635.068 293.443 636.169Z" fill="#C2CED9" fill-opacity="0.3"/>
</svg>
