<svg width="108" height="455" viewBox="0 0 108 455" fill="none" xmlns="http://www.w3.org/2000/svg">
<rect x="38.7041" y="26.2959" width="20.1192" height="441.898" rx="3" transform="rotate(-0.370306 38.7041 26.2959)" fill="#49D3BA"/>
<rect width="53.1646" height="10.9787" transform="matrix(0.999914 -0.0131026 0.00318781 0.999995 17.6982 111.52)" fill="#F4F4F9"/>
<rect width="53.1646" height="10.9787" transform="matrix(0.999914 -0.0131026 0.00318781 0.999995 18.8047 236.393)" fill="#F4F4F9"/>
<rect width="53.1646" height="10.9787" transform="matrix(0.999914 -0.0131026 0.00318781 0.999995 18.8047 373.696)" fill="#F4F4F9"/>
<path d="M75.492 27.9359C74.2407 29.0961 71.7299 33.9702 71.6937 35.9947C74.4175 35.8099 77.6276 36.99 80.3548 37.3929C83.3893 37.8411 87.3434 37.5663 90.198 36.5123C96.0835 34.3392 100.15 29.5434 101.845 23.0275C102.252 21.4632 102.519 19.8808 102.896 18.311C103.024 17.7767 103.404 15.0175 102.841 14.485C102.038 13.7254 98.1896 16.2164 97.6346 16.6822C93.4879 20.1626 88.887 21.2992 83.937 22.8773C80.8385 23.8651 77.9447 25.6618 75.492 27.9359Z" fill="#49D3BA"/>
<path d="M30.1662 124.642C31.4175 125.802 33.9283 130.676 33.9645 132.701C31.2407 132.516 28.0306 133.696 25.3035 134.099C22.2689 134.547 18.3148 134.272 15.4602 133.218C9.57474 131.045 5.50821 126.249 3.81347 119.734C3.4066 118.169 3.13931 116.587 2.76224 115.017C2.63391 114.483 2.25375 111.724 2.81673 111.191C3.61982 110.431 7.46861 112.922 8.02364 113.388C12.1703 116.869 16.7712 118.005 21.7212 119.583C24.8197 120.571 27.7135 122.368 30.1662 124.642Z" fill="#49D3BA"/>
<path d="M26.52 140.211C27.8019 140.034 31.8683 140.901 33.0739 141.852C31.6574 143.361 30.8085 145.812 29.7353 147.606C28.5411 149.603 26.481 151.791 24.4914 152.961C20.3897 155.371 15.6221 155.455 10.984 153.321C9.87045 152.808 8.81332 152.205 7.7109 151.673C7.33571 151.491 5.53373 150.389 5.49155 149.803C5.43139 148.967 8.74164 147.904 9.2816 147.802C13.3157 147.04 16.1922 144.885 19.4955 142.738C21.5633 141.394 24.0074 140.558 26.52 140.211Z" fill="#49D3BA"/>
<path d="M74.0034 18.3569C73.5663 19.2906 71.1513 21.7011 69.9358 22.148C69.4731 20.6091 68.0832 19.0902 67.2647 17.6733C66.3539 16.0968 65.6861 13.8614 65.7209 12.067C65.7925 8.36771 67.8322 5.11695 71.4112 2.80956C72.2704 2.25562 73.1701 1.77471 74.0389 1.23601C74.3346 1.05267 75.9213 0.261447 76.3617 0.459178C76.99 0.741237 76.2968 3.38603 76.1324 3.78992C74.9043 6.80741 75.1879 9.58078 75.2785 12.6395C75.3351 14.5541 74.86 16.5266 74.0034 18.3569Z" fill="#49D3BA"/>
</svg>
