<svg width="377" height="588" viewBox="0 0 377 588" fill="none" xmlns="http://www.w3.org/2000/svg">
<circle cx="303.5" cy="38.5" r="7.5" fill="#8DDFD0"/>
<path d="M5.47234 561.275C6.18591 536.994 6.4539 518.272 22.9824 498.812C32.827 487.222 52.0299 481.36 66.9091 485.128C84.4001 489.558 89.67 506.202 90.6972 520.792C91.8245 536.803 92.4235 563.414 78.0008 575.772C65.2983 586.656 53.518 569.383 67.0877 560.007C88.8208 544.99 116.394 538.834 138.788 518.591C161.183 498.349 191.974 443.099 194.238 395.524C200.142 387.649 203.557 363.282 194.839 355.598C186.579 348.318 171.825 348.196 162.741 356.762C155.075 363.99 146.92 385.557 165.025 394.249C178.58 400.757 193.74 401.007 206.954 391.419C258.301 354.162 270.907 259.386 283.699 199.144C286.727 184.884 288.257 168.438 295.613 155.689C302.563 143.643 308.341 168.671 310.307 174.735C314.475 187.584 314.657 208.258 330.318 198.083C381.806 164.631 373.082 61.5861 366.786 10.1336" stroke="#49D3BA" stroke-width="10" stroke-linecap="round"/>
</svg>
