<svg width="268" height="46" viewBox="0 0 268 46" fill="none" xmlns="http://www.w3.org/2000/svg">
<path fill-rule="evenodd" clip-rule="evenodd" d="M170.144 42.8938V18.0563H175.455C176.109 18.0563 176.599 17.8656 176.926 17.4843C177.307 17.1031 177.498 16.6673 177.498 16.1771C177.498 15.6869 177.307 15.2511 176.926 14.8699C176.599 14.4886 176.109 14.2979 175.455 14.2979H170.144V13.3175C170.144 9.3958 170.362 6.91749 170.798 5.88259C171.125 5.22897 171.533 4.76599 172.024 4.49364C172.514 4.16683 173.113 4.00343 173.821 4.00343C174.584 4.00343 175.264 4.05789 175.864 4.16683C176.081 4.27577 176.299 4.35747 176.517 4.41194H177.579C178.07 4.41194 178.451 4.2213 178.723 3.84002C178.995 3.40427 179.132 2.96853 179.132 2.53278C179.132 1.77022 178.723 1.22554 177.906 0.898729C176.109 0.299576 174.338 0 172.595 0C171.615 0 170.635 0.190639 169.654 0.571918C166.658 1.82469 165.161 5.2562 165.161 10.8664V14.2979H160.83C160.177 14.2979 159.686 14.5158 159.36 14.9516C159.033 15.3873 158.869 15.7958 158.869 16.1771C158.869 16.6673 159.033 17.1031 159.36 17.4843C159.686 17.8656 160.177 18.0563 160.83 18.0563H165.161V42.8938C165.106 43.7109 165.351 44.31 165.896 44.6913C166.114 44.9636 166.359 45.1543 166.631 45.2632C166.958 45.3177 167.367 45.3449 167.857 45.3449C168.347 45.3449 168.837 45.1543 169.327 44.773C169.872 44.3373 170.144 43.7109 170.144 42.8938ZM77.024 30.8019C78.3312 30.6929 78.9849 30.0665 78.9849 28.9227C78.8759 24.2929 77.6231 20.6707 75.2265 18.0563C72.721 15.1694 69.0716 13.726 64.2784 13.726C59.4852 13.726 55.7813 15.3601 53.1668 18.6282C50.6613 21.5695 49.4085 25.3006 49.4085 29.8214C49.4085 34.7236 50.9336 38.6725 53.9839 41.6683C56.7073 44.5551 60.3022 45.9985 64.7686 45.9985C69.6708 46.053 73.6197 44.5824 76.6155 41.5866C76.9968 41.2598 77.1874 40.7151 77.1874 39.9526C77.2963 39.6257 77.1874 39.2989 76.8606 38.9721C76.207 38.3185 75.3899 38.264 74.4095 38.8087C71.2504 41.0419 68.1457 42.1585 65.0954 42.1585C63.6248 42.1585 62.3175 41.9679 61.1737 41.5866C57.0341 39.9526 54.8554 36.3576 54.6375 30.8019H77.024ZM71.3048 20.1805C73.0478 22.0869 74.001 24.5108 74.1644 27.4521H54.8009C54.9643 24.7831 55.8903 22.4682 57.5788 20.5073C59.4307 18.5465 61.6639 17.5661 64.2784 17.5661C67.3286 17.5661 69.6708 18.4375 71.3048 20.1805ZM23.612 41.9134C23.2308 41.4232 22.7133 41.1781 22.0597 41.1781H6.3728L23.7754 18.7099C24.2657 18.0018 24.5108 17.2392 24.5108 16.4222C24.5108 15.932 24.2384 15.469 23.6937 15.0333C23.1491 14.5431 22.441 14.2979 21.5695 14.2979H2.45108C1.68852 14.2979 1.14384 14.5158 0.817025 14.9516C0.490215 15.3873 0.32681 15.8775 0.32681 16.4222C0.32681 16.9669 0.517449 17.4571 0.898728 17.8929C1.28001 18.3286 1.79746 18.5465 2.45108 18.5465H18.3014L0.65362 41.0964C0.217873 41.6411 0 42.3492 0 43.2207C0 43.7653 0.245108 44.2556 0.735323 44.6913C1.22554 45.127 1.87916 45.3449 2.69618 45.3449H22.0597C22.8222 45.3449 23.3669 45.1543 23.6937 44.773C24.0206 44.3373 24.184 43.8198 24.184 43.2207C24.184 42.7849 23.9933 42.3492 23.612 41.9134ZM106.535 16.6673C106.535 15.9592 106.807 15.3873 107.352 14.9516C107.897 14.5158 108.441 14.2979 108.986 14.2979C110.13 14.2979 110.865 14.7337 111.192 15.6052C111.519 16.4767 111.601 17.7839 111.437 19.5269C112.091 17.8929 113.507 16.4767 115.686 15.2784C117.592 14.2435 119.471 13.726 121.323 13.726C123.23 13.726 124.836 13.9711 126.144 14.4614C127.451 14.8971 128.649 15.6052 129.739 16.5856C131.917 18.6554 133.007 21.7056 133.007 25.7363V43.0573C133.007 43.8198 132.707 44.3917 132.108 44.773C131.563 45.1543 130.991 45.3449 130.392 45.3449C129.739 45.3449 129.167 45.1543 128.676 44.773C128.186 44.3373 127.941 43.7653 127.941 43.0573V25.4095C127.941 22.8495 127.233 20.8886 125.817 19.5269C124.51 18.2197 122.876 17.5661 120.915 17.5661C118.3 17.5661 116.067 18.3286 114.215 19.8537C112.363 21.4878 111.437 23.9933 111.437 27.3704V43.0573C111.437 43.8198 111.165 44.3917 110.62 44.773C110.076 45.1543 109.476 45.3449 108.823 45.3449C108.169 45.3449 107.624 45.1543 107.189 44.773C106.753 44.3373 106.535 43.7653 106.535 43.0573V16.6673ZM204.025 3.34981C204.025 2.47831 204.297 1.85193 204.842 1.47065C205.386 1.08937 205.877 0.898729 206.312 0.898729C206.748 0.898729 207.102 0.925963 207.374 0.980431C207.647 1.0349 207.919 1.1983 208.191 1.47065C208.791 1.85193 209.09 2.47831 209.09 3.34981V18.492H204.025V3.34981ZM204.025 20.0716V32.7083H209.09V20.0716H204.025ZM209.09 34.2879H204.025V42.8938C204.025 43.7109 204.27 44.3373 204.76 44.773C205.25 45.1543 205.822 45.3449 206.476 45.3449C207.129 45.3449 207.729 45.1543 208.273 44.773C208.818 44.3373 209.09 43.7109 209.09 42.8938V34.2879ZM237.336 24.0206C236.737 25.9814 236.437 27.9423 236.437 29.9031C236.437 34.2061 237.717 37.8828 240.277 40.933C243.001 44.31 246.868 45.9985 251.879 45.9985C256.89 45.9985 260.758 44.31 263.481 40.933C266.041 37.8283 267.321 34.1244 267.321 29.8214C267.321 25.5729 266.041 21.8691 263.481 18.7099C260.758 15.3873 256.89 13.726 251.879 13.726C246.868 13.726 243.001 15.3873 240.277 18.7099C238.97 20.2895 237.99 22.0597 237.336 24.0206ZM242.238 34.07C241.912 32.5993 241.748 31.2104 241.748 29.9031C241.748 26.635 242.565 23.8844 244.199 21.6512C246.051 18.9278 248.611 17.5661 251.879 17.5661C255.256 17.5661 257.816 18.9278 259.559 21.6512C261.139 23.9389 261.929 26.6623 261.929 29.8214C261.929 32.8717 261.139 35.6496 259.559 38.1551C257.871 40.824 255.311 42.1585 251.879 42.1585C248.611 42.1585 246.051 40.824 244.199 38.1551C243.273 36.9023 242.62 35.5406 242.238 34.07Z" fill="#49D3BA"/>
<path d="M209.887 10.3652C209.352 10.6548 208.028 12.1311 207.815 12.8396C208.748 13.0322 209.709 13.7507 210.585 14.1503C211.559 14.595 212.914 14.8723 213.977 14.7717C216.167 14.5642 218.006 13.2626 219.219 11.1317C219.511 10.6202 219.757 10.0891 220.038 9.57274C220.134 9.39702 220.535 8.4628 220.398 8.22232C220.204 7.87927 218.665 8.39111 218.433 8.50241C216.697 9.334 215.04 9.29849 213.222 9.3852C212.084 9.43948 210.935 9.79752 209.887 10.3652Z" fill="#49D3BA"/>
<path d="M204.58 22.7139C205.028 23.0995 205.991 24.7863 206.054 25.5114C205.135 25.5114 204.087 26.0127 203.182 26.2235C202.174 26.4581 200.841 26.4557 199.857 26.1472C197.828 25.5111 196.344 23.8903 195.614 21.5949C195.439 21.0438 195.31 20.4828 195.145 19.9291C195.088 19.7406 194.893 18.7604 195.068 18.5558C195.319 18.2638 196.672 19.0634 196.87 19.217C198.348 20.3642 199.92 20.6598 201.62 21.1053C202.684 21.3842 203.7 21.958 204.58 22.7139Z" fill="#49D3BA"/>
<path d="M201.185 27.6257C201.417 27.4994 202.255 27.3704 202.553 27.464C202.39 27.8532 202.402 28.3801 202.325 28.7984C202.239 29.264 202.002 29.8286 201.706 30.1944C201.094 30.9487 200.191 31.3089 199.154 31.2384C198.905 31.2215 198.66 31.1833 198.412 31.1618C198.327 31.1544 197.905 31.0752 197.855 30.9669C197.784 30.8124 198.34 30.3714 198.436 30.313C199.152 29.8768 199.547 29.2597 200.025 28.6132C200.324 28.2085 200.73 27.8732 201.185 27.6257Z" fill="#49D3BA"/>
<path d="M211.625 6.43278C211.394 6.70776 210.996 7.78901 211.04 8.21104C211.603 8.09928 212.301 8.25829 212.88 8.26866C213.523 8.2802 214.34 8.1166 214.907 7.82054C216.077 7.21016 216.802 6.1033 216.988 4.70256C217.033 4.36627 217.048 4.02997 217.087 3.69335C217.1 3.57878 217.108 2.99472 216.978 2.89913C216.791 2.76277 216.053 3.38442 215.949 3.49625C215.175 4.33171 214.245 4.69194 213.255 5.15339C212.635 5.44224 212.078 5.89379 211.625 6.43278Z" fill="#49D3BA"/>
</svg>
