<?xml version="1.0" encoding="UTF-8"?>
<svg id="Layer_2" data-name="Layer 2" xmlns="http://www.w3.org/2000/svg" viewBox="0 0 441.96 306.85">
  <defs>
    
  </defs>
  <g id="Layer_2-2" data-name="Layer 2">
    <path class="cls-1" d="M427.5,124.39c-27.64-26.16-66.14,2.13-66.97,2.74.53-1.32,43.97-108.44,20.59-120.07,0,0-10.87-6.79-14.61,19.59s-24.69,80.22-25.44,80.22c-6.96,10.48-20.21,16.74-37.56,16.34-4.82-.11-7.47-3.91-9.38-8.65-4.8-11.85-10.88-41.2-15.16-62.46,0,0-2.32-9.4,4.15-11.93,0,0,8.93-4.2,14.49,10.59,0,0,7.17,26.48,14.32,28.94,0,0,20.75,11.61,16.09-25.26,0,0-10.44-63.88-60.69-53.25,0,0-44.09,8.03,4.11,112.17,0,0,24.7,40.74-22.1,118,0,0-3.07,5-5.4,2.52-2.01-2.15,1.71-9.11,1.71-9.11,0,0,44.41-98.84,12.68-113.41,0,0-6.49-3.31-13.55,3.75,0,0,1.7-13.9-6.71-14.8,0,0-19.18-8.32-31.74,37.01,0,0-7.99,28.54-27.19,41.13-15.3,10.04-56.81,4.78-54.01-16.53,0,0,1.38-12,4.75-16.51,0,0,4.32-7.63,21.05.67,0,0,29.35,20.67,39.37,6.11,0,0,24.07-35.98,5.77-57.89,0,0-14.65-13.61-37.31-14.4,0,0-50.35-5.2-86.08,127.61,0,0-14.82,45.94-23.07,47.78,0,0-10.44,3.43-11.41-9.19-.16-2.04,0-4.09.38-6.1,1.97-10.53,11.66-56.51,38.88-105.25,0,0,39.54-75.23,43-90.6,0,0,14.44-42.39-24.52-42.39,0,0-38.46,3.55-78.48,35.36-3.29,2.62-5.36,6.46-5.7,10.65-.58,7.01-1.03,18.07,1.04,24.79,1.37,4.41,6.54,5.52,10.08,2.02,9.95-9.83,36.06-44.28,57.18-38.65,0,0,12.01,3.48.66,23.42-13.89,24.41-112.15,215.3-70.5,238.83,0,0,43.26,25.51,61.61-10.98l30.26-62.59s31.55,24.26,80.28-9.63c0,0,26.63-21.08,36.92-47.46,0,0,9.31-19.37,17.2-21.56,0,0,11.57-5.16,2.48,27.59-9.09,32.75-12.91,58.55-42.86,90.08,0,0-24.36,20.7-12.8,35.54,0,0,18.46,22.4,67.07-35.32,0,0,38.93-43.1,46.1-113.08,0,0,11.55,1.69,38.01-15.24-.45,1.13-29.87,73.17-32.92,87.64,0,0-7.82,27.95,3.87,36.02,4.21,2.91,9.88,2.25,13.78-1.07,6.48-5.5,16.22-20.4,20.01-60.66,0,0,19.22,30.13,51.99,25.89,0,0,18.01-2.83,30.73-15.89,17.71-18.21,31.75-52.14,5.55-83.07ZM145.18,111.49s11.18-20.95,27.96-15.87c12.13,3.66,17.54,14.93,13.74,30.33-3.79,15.4-49.04-2.61-41.7-14.46ZM413.34,168.57c-9.38,42.1-39.43,29.36-39.43,29.36-24.5-7.99-12.55-30.55-12.55-30.55,16.4-39.02,41.52-32.38,41.52-32.38,17.91,1.29,10.46,33.57,10.46,33.57Z"></path>
  </g>
</svg>