<?xml version="1.0" encoding="UTF-8"?>
<svg id="Layer_2" data-name="Layer 2" xmlns="http://www.w3.org/2000/svg" viewBox="0 0 474.48 306.03">
  <defs>
    
  </defs>
  <g id="Layer_2-2" data-name="Layer 2">
    <path fill="currentColor" d="M460.81,106.6c-15.05-14.24-42.81-7.68-51.18-3.4-8.45,4.32-21.6,12.8-24.71,14.01-28.22,10.98-16.48-2.12-16.48-2.12,34.85-35.36,49.68-83.19,41.32-102.16-5.31-12.04-18.17-12.07-18.17-12.07-44.12-3.95-51.73,115.19-51.73,115.19-.69,14.99-22.24,19.47-33.5,13.97-4.33-2.12-10.16-11.96-12.07-16.7-4.8-11.85-9.56-39.96-13.84-61.22,0,0-2.32-9.4,4.15-11.93,0,0,10.53-4.33,14.49,10.59,0,0,5.86,24.07,14.32,28.94,0,0,20.75,11.61,16.09-25.26,0,0-10.44-63.88-60.69-53.25,0,0-45.41,6.79,2.79,110.93,0,0,24.7,40.74-22.1,118,0,0-3.07,5-5.4,2.52-2.01-2.15,1.71-9.11,1.71-9.11,0,0,52.1-105.9,12.68-113.41,0,0-17.84-2.83-24.9,4.23,0,0,10.91-13.09.78-15.59,0,0-15.32-8.01-27.88,37.32,0,0-7.99,28.54-27.19,41.13-15.3,10.04-56.81,4.78-54.01-16.53,0,0,1.38-12,4.75-16.51,0,0,4.32-7.63,21.05.67,0,0,29.35,20.67,39.37,6.11,0,0,26.06-39.12,5.77-57.89,0,0-14.65-13.61-37.31-14.4,0,0-50.35-5.2-86.08,127.61,0,0-14.82,45.94-23.07,47.78,0,0-10.44,3.43-11.41-9.19-.16-2.04,0-4.09.38-6.1,1.97-10.53,11.66-56.51,38.88-105.25,0,0,39.54-75.23,43-90.6,0,0,14.93-44.79-24.52-42.39,0,0-38.46,3.55-78.48,35.36-3.29,2.62-5.36,6.46-5.7,10.65-.58,7.01-1.03,18.07,1.04,24.79,1.37,4.41,6.54,5.52,10.08,2.02,9.95-9.83,36.06-44.28,57.18-38.65,0,0,12.01,3.48.66,23.42-13.89,24.41-112.33,216.37-70.68,239.9,0,0,43.44,24.44,61.79-12.05l30.26-62.59s31.55,24.26,80.28-9.63c0,0,26.63-21.08,36.92-47.46,0,0,9.31-19.37,17.2-21.56,0,0,15.45-6.16,8.26,26.84-7.24,33.21-11.41,43.38-35.28,68.24,0,0-22.67,18.14-11.11,32.98,0,0,24.85,29.26,69.95-31.89,0,0,19.58-20.56,28.17-91.36,0,0,10.18,12.11,36.64-4.82,17.84-7.87,47-9.86,47-2.63l-3.32,30.46c-1.2,15.07,4.46,35.63,35.2,35.4,9.74-.07,19.36-2.56,27.95-7.17,4.29-2.31,8.78-5.39,12.76-9.47,17.71-18.21,34.14-53.77,7.94-84.7ZM139.71,107.17s11.18-20.95,27.96-15.87c12.13,3.66,17.54,14.93,13.74,30.33-3.79,15.4-49.04-2.61-41.7-14.46ZM358.2,90.62c14.58-66.82,27.63-71.27,27.63-71.27,13.74-4.66,3.48,32.06,3.48,32.06-15.15,46.82-28.6,49.92-28.6,49.92-5.25.1-2.51-10.71-2.51-10.71ZM450.62,148.08c-8.43,40.21-38.63,40.02-38.63,40.02-26.66-.76-8.1-41.16-8.1-41.16,14.74-37.27,37.32-30.93,37.32-30.93,16.1,1.23,9.41,32.07,9.41,32.07Z"></path>
  </g>
</svg>