<svg width="55" height="95" viewBox="0 0 55 95" fill="none" xmlns="http://www.w3.org/2000/svg">
<path fill-rule="evenodd" clip-rule="evenodd" d="M21.6436 2.09176C20.4985 2.89333 19.9259 4.2102 19.9259 6.04237V37.8762H30.5754V6.04237C30.5754 4.2102 29.9456 2.89333 28.686 2.09176C28.1134 1.51921 27.5409 1.17568 26.9683 1.06117C26.3958 0.946659 25.6514 0.889404 24.7354 0.889404C23.8193 0.889404 22.7887 1.29019 21.6436 2.09176ZM30.5754 41.197H19.9259V67.7634H30.5754V41.197ZM30.5754 71.0842H19.9259V89.1768C19.9259 90.8944 20.4412 92.2113 21.4718 93.1273C22.5024 93.9289 23.7048 94.3297 25.0789 94.3297C26.453 94.3297 27.7127 93.9289 28.8578 93.1273C30.0029 92.2113 30.5754 90.8944 30.5754 89.1768V71.0842Z" fill="#49D3BA"/>
<path d="M32.2476 20.7907C31.1234 21.3996 28.3386 24.5033 27.8924 25.9927C29.8532 26.3977 31.8737 27.9083 33.7149 28.7484C35.7635 29.6831 38.6114 30.2662 40.8453 30.0547C45.4507 29.6185 49.3174 26.882 51.8674 22.4023C52.4796 21.3269 52.997 20.2102 53.5893 19.1248C53.7909 18.7554 54.6325 16.7913 54.3458 16.2858C53.9368 15.5646 50.7028 16.6406 50.2142 16.8746C46.5643 18.6229 43.0808 18.5482 39.2592 18.7305C36.8671 18.8446 34.4513 19.5973 32.2476 20.7907Z" fill="#49D3BA"/>
<path d="M21.0927 46.7516C22.0359 47.5623 24.061 51.1084 24.192 52.6329C22.2606 52.6329 20.0573 53.6867 18.1542 54.13C16.0366 54.6231 13.2326 54.6182 11.1637 53.9696C6.89834 52.6323 3.7797 49.2247 2.24486 44.3991C1.87638 43.2406 1.60544 42.0612 1.2577 40.897C1.13935 40.5008 0.727524 38.4401 1.097 38.0099C1.62405 37.3961 4.46911 39.0772 4.88494 39.4C7.99165 41.8118 11.2968 42.4333 14.8713 43.3699C17.1088 43.9561 19.2439 45.1626 21.0927 46.7516Z" fill="#49D3BA"/>
<path d="M13.9553 57.078C14.443 56.8126 16.204 56.5414 16.83 56.7381C16.4877 57.5563 16.5138 58.664 16.3517 59.5435C16.1713 60.5222 15.6723 61.7092 15.0491 62.4783C13.7643 64.064 11.8642 64.8214 9.68417 64.6732C9.1608 64.6376 8.64648 64.5573 8.12454 64.512C7.94691 64.4966 7.05914 64.3301 6.95452 64.1024C6.80528 63.7776 7.97425 62.8505 8.1756 62.7277C9.67987 61.8107 10.5115 60.5133 11.5154 59.1541C12.1438 58.3032 12.9993 57.5983 13.9553 57.078Z" fill="#49D3BA"/>
<path d="M35.9056 12.5236C35.4201 13.1017 34.5826 15.3749 34.6755 16.2621C35.8582 16.0271 37.3271 16.3614 38.5429 16.3832C39.8956 16.4075 41.6121 16.0635 42.8054 15.4411C45.2656 14.1579 46.7885 11.8309 47.1804 8.88612C47.2745 8.17914 47.3066 7.47214 47.3873 6.76444C47.4148 6.52359 47.433 5.29569 47.1579 5.09473C46.7655 4.80806 45.2141 6.11498 44.9961 6.35007C43.3675 8.10647 41.414 8.8638 39.3315 9.83393C38.0279 10.4412 36.8574 11.3905 35.9056 12.5236Z" fill="#49D3BA"/>
</svg>
