<?xml version="1.0" encoding="UTF-8"?>
<svg id="Layer_1" data-name="Layer 1" xmlns="http://www.w3.org/2000/svg" viewBox="0 0 2086.37 408.84">
  <defs>
    <style>
      .cls-1 {
        fill: #5ec3b2;
      }
    </style>
  </defs>
  <path class="cls-1" d="M507.76,133.28c36.33,0,63.99,11.07,82.98,33.22,18.16,20.06,27.65,47.83,28.48,83.35,0,8.78-4.96,13.58-14.87,14.42h-169.67c1.65,42.62,18.16,70.19,49.54,82.73,8.67,2.93,18.58,4.38,29.72,4.38,23.12,0,46.65-8.56,70.59-25.69,7.43-4.18,13.62-3.76,18.57,1.25,2.48,2.51,3.31,5.01,2.48,7.52,0,5.84-1.45,10.02-4.34,12.53-22.7,22.98-52.64,34.26-89.79,33.84-33.85,0-61.1-11.07-81.74-33.21-23.12-22.98-34.68-53.27-34.68-90.88,0-34.68,9.5-63.29,28.48-85.86,19.82-25.06,47.89-37.6,84.22-37.6ZM1929.61,133.28c37.98,0,67.29,12.75,87.93,38.23,19.4,24.23,29.1,52.64,29.1,85.23s-9.7,61.42-29.1,85.24c-20.64,25.9-49.95,38.85-87.93,38.85s-67.29-12.95-87.93-38.85c-19.4-23.4-29.1-51.6-29.1-84.6,0-15.04,2.27-30.08,6.81-45.13,4.96-15.04,12.39-28.62,22.29-40.73,20.64-25.49,49.95-38.23,87.93-38.23ZM184.06,137.67c6.6,0,11.97,1.88,16.1,5.64,4.13,3.34,6.19,6.89,6.19,10.65,0,6.27-1.86,12.12-5.57,17.55l-131.89,172.34h118.89c4.95,0,8.88,1.88,11.77,5.64,2.89,3.34,4.33,6.69,4.33,10.03,0,4.59-1.24,8.57-3.71,11.91-2.48,2.92-6.6,4.38-12.38,4.38H41.02c-6.19,0-11.15-1.67-14.86-5.01-3.72-3.34-5.57-7.1-5.57-11.28,0-6.68,1.65-12.11,4.95-16.29l133.75-172.98H39.17c-4.95,0-8.88-1.67-11.77-5.01-2.89-3.34-4.34-7.1-4.34-11.28,0-4.18,1.24-7.94,3.71-11.28,2.48-3.34,6.61-5.01,12.39-5.01h144.9ZM940.11,133.28c14.45,0,26.62,1.88,36.53,5.64,9.91,3.35,19,8.78,27.25,16.29,16.52,15.88,24.77,39.27,24.77,70.19v132.86c0,5.85-2.27,10.24-6.81,13.16-4.13,2.93-8.47,4.38-13.01,4.38-4.95,0-9.29-1.46-13-4.38-3.71-3.35-5.57-7.73-5.57-13.16v-135.37c0-19.63-5.36-34.68-16.09-45.13-9.91-10.02-22.3-15.04-37.16-15.04-19.81,0-36.74,5.84-50.78,17.55-14.04,12.53-21.06,31.75-21.06,57.66v120.33c0,5.85-2.06,10.24-6.19,13.16-4.13,2.93-8.67,4.38-13.62,4.38s-9.09-1.46-12.39-4.38c-3.3-3.35-4.95-7.73-4.95-13.16v-202.42c0-5.43,2.07-9.82,6.19-13.16,4.13-3.34,8.26-5.01,12.39-5.01,8.67,0,14.24,3.35,16.71,10.03,2.48,6.69,3.1,16.71,1.86,30.08,4.96-12.53,15.69-23.39,32.2-32.58,14.45-7.94,28.69-11.91,42.73-11.91ZM1328.71,28c13.21,0,26.62,2.3,40.25,6.89,6.19,2.51,9.29,6.69,9.29,12.54,0,3.34-1.04,6.68-3.1,10.03-2.07,2.92-4.95,4.38-8.67,4.39h-8.05c-1.65-.42-3.3-1.04-4.95-1.88-4.54-.84-9.7-1.26-15.49-1.26-5.36,0-9.9,1.26-13.62,3.76-3.72,2.09-6.81,5.64-9.29,10.66-3.3,7.94-4.95,26.95-4.95,57.03v7.52h40.25c4.95,0,8.67,1.46,11.14,4.39,2.89,2.93,4.34,6.27,4.34,10.03s-1.45,7.1-4.34,10.02c-2.48,2.93-6.19,4.39-11.14,4.39h-40.25v190.51c0,6.27-2.07,11.07-6.2,14.42-3.72,2.92-7.43,4.38-11.14,4.38s-6.81-.21-9.29-.63c-2.06-.84-3.92-2.3-5.57-4.39-4.13-2.93-5.99-7.52-5.58-13.79v-190.51h-32.82c-4.96,0-8.67-1.47-11.14-4.39-2.48-2.92-3.72-6.27-3.72-10.02,0-2.93,1.24-6.06,3.72-9.4,2.48-3.34,6.19-5.01,11.14-5.01h32.82v-26.32c0-43.04,11.35-69.36,34.06-78.97,7.43-2.92,14.86-4.39,22.29-4.39ZM1605.3,357.01c0,6.27-2.07,11.07-6.19,14.42-4.13,2.93-8.67,4.38-13.62,4.38s-9.29-1.46-13-4.38c-3.72-3.35-5.58-8.15-5.58-14.42v-66.01h38.39v66.01ZM1929.61,162.74c-24.77,0-44.17,10.44-58.21,31.34-12.38,17.13-18.58,38.23-18.58,63.3,0,10.03,1.24,20.68,3.72,31.96,2.89,11.28,7.84,21.72,14.86,31.34,14.03,20.47,33.44,30.7,58.21,30.7,26,0,45.4-10.23,58.2-30.7,11.97-19.22,17.96-40.53,17.96-63.93s-5.98-45.12-17.96-62.67c-13.21-20.89-32.61-31.34-58.2-31.34ZM1605.3,278.89h-38.39v-96.93h38.39v96.93ZM507.76,162.74c-19.81,0-36.74,7.52-50.78,22.56-12.8,15.04-19.81,32.8-21.05,53.27h146.75c-1.24-22.56-8.46-41.15-21.67-55.78-12.38-13.37-30.14-20.05-53.25-20.05ZM1584.25,34.89c3.3,0,5.98.21,8.05.63,2.07.42,4.13,1.67,6.19,3.76,4.54,2.92,6.81,7.73,6.81,14.41v116.15h-38.39V53.69c0-6.68,2.07-11.49,6.19-14.41s7.85-4.39,11.15-4.39Z"/>
  <path class="cls-1" d="M1604.35,107.5c-4.05,2.23-14.09,13.54-15.7,18.98,7.07,1.48,14.35,6.99,20.99,10.06,7.39,3.41,17.65,5.54,25.71,4.76,16.6-1.59,30.54-11.58,39.74-27.92,2.21-3.92,4.07-8,6.21-11.96.72-1.35,3.76-8.51,2.73-10.36-1.47-2.63-13.14,1.3-14.89,2.15-13.16,6.37-25.72,6.11-39.5,6.77-8.62.42-17.33,3.16-25.27,7.52Z"/>
  <path class="cls-1" d="M1577.47,202.23c3.4,2.96,10.7,15.9,11.17,21.46-6.96,0-14.91,3.85-21.76,5.46-7.64,1.8-17.75,1.78-25.21-.59-15.38-4.88-26.62-17.31-32.15-34.92-1.33-4.23-2.3-8.53-3.56-12.78-.43-1.45-1.91-8.96-.57-10.53,1.9-2.24,12.16,3.9,13.65,5.08,11.2,8.8,23.12,11.06,36,14.48,8.06,2.14,15.76,6.54,22.43,12.34Z"/>
</svg>